<svg id="Layer_1" data-name="Layer 1" xmlns="http://www.w3.org/2000/svg" viewBox="0 0 193 192.75"><defs><style>.cls-1{fill:#fff;}</style></defs><title>planeta_duza</title><path class="cls-1" d="M192.93,92.83a11.43,11.43,0,0,1-.29,1.93c-3.47,14.1-31.62-7.84-48.09-33.33l-.22-.35c9,6.9,32.95,25.2,43.78,22,2.37-1.11,3.23-3,2.85-6.33a95.92,95.92,0,0,0-4.38-14.88c1.34,3.82,1.84,6.83,1.44,8.94-1.87,9.75-21.52-6.07-31.22-22.64a1.55,1.55,0,0,1-.12-.22c5.41,3.72,18.1,12.43,23.92,10.44,3.37-1.4,1.61-6.09-.13-9.43A96.51,96.51,0,1,0,23.69,159.83a99.1,99.1,0,0,0,8,8.21c-1.86-1.77-3.73-3.72-5.59-5.86A1.3,1.3,0,0,0,26,162a116.83,116.83,0,0,0,18.8,16,96,96,0,0,0,14.71,7.64c-11.9-6-24.29-20.92-28-25.56l-.24-.31C49,176.39,64.55,187.26,75.57,190.71a98.87,98.87,0,0,0,11.2,1.79c-13.26-3.05-32-21.35-45.34-38.92l-.31-.42c27.4,24.74,49.43,38.67,62.47,39.59a97.69,97.69,0,0,0,10.18-1.3c-13.12-.09-38.08-20.54-58.54-48.38h0l-.36-.5c35.59,31.17,61.67,46.41,75.66,44.26a99.77,99.77,0,0,0,9.27-4.06c-15.23,3.91-46.31-24.18-67.44-53.83-.11-.16-.27-.38-.38-.55,49.94,42.41,72.16,48.19,82,45.56a1,1,0,0,0,.21-.1q2.88-2.15,5.63-4.54c1-.86,1.95-1.74,2.9-2.63C148.91,174.54,115,145,91.92,111.87l-.39-.55c39.61,32.89,66.66,47.67,80.4,43.94a12.82,12.82,0,0,0,2-1.17,95.85,95.85,0,0,0,6.1-9.25c-11.92,12.84-48.19-20.68-68.83-50.64l-.36-.52c13.41,11,54.2,44.4,72.82,39.23,1.93-1,2.59-1.54,3.25-2.68a96.32,96.32,0,0,0,3.15-10.17c-6.65,14.63-39.48-11-61-43l-.29-.44c11.16,8.92,45.12,36.06,60.35,31.71a5.51,5.51,0,0,0,3.6-4.41A98.23,98.23,0,0,0,192.93,92.83ZM61.18,21a18,18,0,0,1,16.09,10A17.46,17.46,0,0,0,50.73,53.61,18,18,0,0,1,61.18,21ZM50.44,82.84a23.49,23.49,0,0,0-17.9,38.71A24.22,24.22,0,1,1,68.26,91,23.44,23.44,0,0,0,50.44,82.84Zm64.73-34.22A12.55,12.55,0,0,0,105.6,69.3,12.94,12.94,0,1,1,124.68,53,12.53,12.53,0,0,0,115.17,48.62Z"/></svg>