<svg id="Isolation_Mode" data-name="Isolation Mode" xmlns="http://www.w3.org/2000/svg" viewBox="0 0 49.59 49.53"><defs><style>.cls-1{fill:#fff;}</style></defs><title>mala_planetka</title><path class="cls-1" d="M33.16,19.81l-.07-.11C36,22,44.68,29,48.6,27.85a1.44,1.44,0,0,0,.92-1.13,25.17,25.17,0,0,0,0-2.88,3.2,3.2,0,0,1-.06.51c-.9,3.62-8.13-2-12.36-8.56l-.06-.09c2.32,1.77,8.47,6.47,11.25,5.64.64-.3.84-.83.7-1.78a25.52,25.52,0,0,0-1.14-3.8,5.2,5.2,0,0,1,.42,2.42c-.48,2.51-5.53-1.56-8-5.81h0l0-.06c1.4,1,4.66,3.19,6.15,2.68.86-.36.42-1.56,0-2.41a24.8,24.8,0,1,0-38,30.78,18.76,18.76,0,0,1-1.64-1.68h0l0,0a30.29,30.29,0,0,0,4.71,4,24.63,24.63,0,0,0,3.87,2c-3-1.54-6.22-5.36-7.15-6.55L8,41.06c4.66,4.38,8.74,7.18,11.59,8a23.89,23.89,0,0,0,2.67.41c-3.41-.78-8.23-5.48-11.65-10l-.08-.11c7.07,6.38,12.74,10,16.09,10.17a25.7,25.7,0,0,0,2.6-.34c-3.37,0-9.8-5.25-15.07-12.42a1,1,0,0,0-.09-.13C23.31,44.7,30,48.61,33.61,48A24.56,24.56,0,0,0,36,46.92c-3.87,1.17-11.94-6.09-17.42-13.78L18.5,33C31.33,43.89,37,45.38,39.57,44.7h0c.5-.37,1-.76,1.47-1.18.26-.22.5-.45.74-.68-3.55,2-12.26-5.58-18.19-14.08l-.1-.14C33.7,37.06,40.65,40.86,44.18,39.9a3.44,3.44,0,0,0,.51-.3,24.06,24.06,0,0,0,1.56-2.36c-3.08,3.25-12.37-5.35-17.67-13l-.09-.14C31.93,26.9,42.42,35.48,47.2,34.15a1.56,1.56,0,0,0,.84-.69,23.16,23.16,0,0,0,.8-2.61C47.13,34.6,38.7,28,33.16,19.81Z"/></svg>